# xmcd
#
# Track frame offsets: 
#        150
#        16800
#        34379
#        48654
#        63636
#        71576
#        84332
#        98896
#        116379
#        130326
#        140826
#        153046
#        169644
#        186020
#        199507
#        212604
#        229914
#        243017
#        260425
#        275642
#
# Disc length: 3968 seconds
#
# Revision: 0
# Processed by: cddbd v1.5.2PL0 Copyright (c) Steve Scherf et al.
# Submitted via: ExactAudioCopy v0.95b4
#
DISCID=180f7e14
DTITLE=Ретро-бэнд Граммофон - The Best 3
DYEAR=2002
DGENRE=Музыка прошлых лет
TTITLE0=Брызги шампанского
TTITLE1=Будь со мною строгой
TTITLE2=В парке Чаир
TTITLE3=Не надо вспоминать
TTITLE4=Диксиленд
TTITLE5=Студенточка
TTITLE6=Возврата нет
TTITLE7=Уходит вечер
TTITLE8=Бэсаме мучо
TTITLE9=Карусель
TTITLE10=Взгляну на тебя
TTITLE11=Слишком поздно
TTITLE12=Я люблю тебя слишком
TTITLE13=Хава Нагила
TTITLE14=Моё сердце
TTITLE15=Караван
TTITLE16=Когда святые маршируют
TTITLE17=Бенсонхорст блюз
TTITLE18=Маленький цветок
TTITLE19=Что я сказал
EXTD=
EXTT0=
EXTT1=
EXTT2=
EXTT3=
EXTT4=
EXTT5=
EXTT6=
EXTT7=
EXTT8=
EXTT9=
EXTT10=
EXTT11=
EXTT12=
EXTT13=
EXTT14=
EXTT15=
EXTT16=
EXTT17=
EXTT18=
EXTT19=
PLAYORDER=
